<?xml version="1.0" encoding="UTF-8" standalone="no"?>
<!-- Created with Inkscape (http://www.inkscape.org/) -->

<svg
   xmlns:dc="http://purl.org/dc/elements/1.1/"
   xmlns:cc="http://creativecommons.org/ns#"
   xmlns:rdf="http://www.w3.org/1999/02/22-rdf-syntax-ns#"
   xmlns:svg="http://www.w3.org/2000/svg"
   xmlns="http://www.w3.org/2000/svg"
   xmlns:sodipodi="http://sodipodi.sourceforge.net/DTD/sodipodi-0.dtd"
   xmlns:inkscape="http://www.inkscape.org/namespaces/inkscape"
   width="10mm"
   height="10mm"
   viewBox="0 0 10 10"
   version="1.1"
   id="svg8"
   inkscape:version="0.92+devel unknown"
   sodipodi:docname="armes.svg">
  <defs
     id="defs2" />
  <sodipodi:namedview
     id="base"
     pagecolor="#ffffff"
     bordercolor="#666666"
     borderopacity="1.0"
     inkscape:pageopacity="0.0"
     inkscape:pageshadow="2"
     inkscape:zoom="11.313709"
     inkscape:cx="4.9743705"
     inkscape:cy="17.294681"
     inkscape:document-units="mm"
     inkscape:current-layer="g4603"
     showgrid="false"
     inkscape:snap-bbox="true"
     inkscape:snap-bbox-midpoints="true"
     inkscape:bbox-nodes="true"
     inkscape:bbox-paths="true"
     inkscape:snap-bbox-edge-midpoints="true"
     inkscape:snap-global="true"
     inkscape:window-width="1920"
     inkscape:window-height="1016"
     inkscape:window-x="0"
     inkscape:window-y="0"
     inkscape:window-maximized="1"
     inkscape:pagecheckerboard="true"
     inkscape:document-rotation="0" />
  <metadata
     id="metadata5">
    <rdf:RDF>
      <cc:Work
         rdf:about="">
        <dc:format>image/svg+xml</dc:format>
        <dc:type
           rdf:resource="http://purl.org/dc/dcmitype/StillImage" />
        <dc:title />
      </cc:Work>
    </rdf:RDF>
  </metadata>
  <g
     inkscape:label="Calque 1"
     inkscape:groupmode="layer"
     id="layer1"
     transform="translate(0,-287)">
    <g
       id="g4603"
       transform="rotate(-30,3.4410951,291.14265)">
      <circle
         style="opacity:1;fill:#ffffff;fill-opacity:1;stroke:none;stroke-width:0.51201862;stroke-linecap:round;stroke-linejoin:miter;stroke-miterlimit:4;stroke-dasharray:none;stroke-opacity:1"
         id="path4482"
         cx="150.11031"
         cy="251.27373"
         transform="rotate(30)"
         r="5" />
      <g
         id="g4999"
         transform="matrix(0.60184709,0.60184709,-0.60184709,0.60184709,179.20741,126.30771)">
        <path
           sodipodi:nodetypes="ccccccc"
           inkscape:connector-curvature="0"
           id="path4952"
           d="m -8.6487562,286.15586 -0.2988507,-0.1087 c -0.5119129,0.64963 -0.3790587,0.6786 -1.2711501,1.49063 l 0.3145214,0.79262 0.8436888,-0.12392 c 0.257193,-1.17859 0.3486991,-1.07802 0.6553474,-1.84617 z"
           style="fill:#4400aa;fill-rule:evenodd;stroke:none;stroke-width:0.26458338px;stroke-linecap:butt;stroke-linejoin:miter;stroke-opacity:1" />
        <path
           sodipodi:nodetypes="ccccc"
           inkscape:connector-curvature="0"
           id="path4780"
           d="m -4.2087121,278.46562 -0.8672502,0.69391 -2.9548362,4.35001 -0.775049,2.91856 z"
           style="fill:#666666;fill-rule:evenodd;stroke:none;stroke-width:0.26458338px;stroke-linecap:butt;stroke-linejoin:miter;stroke-opacity:1" />
        <path
           sodipodi:nodetypes="ccccc"
           inkscape:connector-curvature="0"
           id="path4780-9"
           d="m -4.208707,278.46562 -0.1673186,1.09802 -2.289805,4.73396 -2.1400186,2.1305 z"
           style="fill:#999999;fill-rule:evenodd;stroke:none;stroke-width:0.26458341px;stroke-linecap:butt;stroke-linejoin:miter;stroke-opacity:1" />
        <path
           inkscape:connector-curvature="0"
           id="path4952-8"
           d="m -8.6487562,286.15586 -0.2988506,-0.1087 c -0.5119128,0.64963 -0.3790587,0.6786 -1.2711502,1.49063 l 0.3145217,0.79262 z"
           style="opacity:0.25;fill:#000000;fill-rule:evenodd;stroke:none;stroke-width:0.26458341px;stroke-linecap:butt;stroke-linejoin:miter;stroke-opacity:1" />
        <path
           inkscape:connector-curvature="0"
           id="path4800"
           d="m -9.9302677,283.63174 -0.3012013,0.4049 c 0.169972,0.99184 0.7162356,1.88289 1.4197668,2.40158 0.8009643,0.34993 1.8457649,0.37749 2.7897097,0.0288 l 0.2000597,-0.46331 c -0.9079908,0.17134 -1.4756212,0.11262 -2.0373215,-0.0318 l -0.012866,-0.4645 -0.2788982,-0.21354 -0.3243736,-0.13476 -0.4087079,0.22111 c -0.4058814,-0.41426 -0.7405516,-0.87648 -1.0461673,-1.74849 z"
           style="fill:#d40000;fill-rule:evenodd;stroke:none;stroke-width:0.26458338px;stroke-linecap:butt;stroke-linejoin:miter;stroke-opacity:1" />
        <path
           inkscape:connector-curvature="0"
           id="path4800-2"
           d="m -9.9302674,283.63173 -0.3012016,0.40491 c 0.169972,0.99184 0.7162363,1.88289 1.4197674,2.40158 l 0.6606831,-1.14434 -0.3243735,-0.13477 -0.4087077,0.22111 c -0.405882,-0.41426 -0.7405516,-0.87648 -1.0461677,-1.74849 z"
           style="opacity:0.2;fill:#000000;fill-rule:evenodd;stroke:none;stroke-width:0.26458341px;stroke-linecap:butt;stroke-linejoin:miter;stroke-opacity:1" />
        <path
           id="path4800-3"
           transform="matrix(0.22913589,0.13229167,-0.13229167,0.22913589,2.5323443,285.83446)"
           d="m -45.087891,17.482422 -0.08789,0.753906 c 2.43069,2.925251 5.902568,4.809484 9.185547,5.177734 v -1.6875 c -3.185,-0.32719 -6.529144,-1.856355 -9.097657,-4.24414 z"
           style="opacity:0.25;fill:#000000;fill-rule:evenodd;stroke:none;stroke-width:1.00000024px;stroke-linecap:butt;stroke-linejoin:miter;stroke-opacity:1"
           inkscape:connector-curvature="0" />
        <path
           id="path4800-3-9"
           d="m -5.942488,286.28269 -0.079597,0.18437 c -0.9439447,0.34872 -1.9887484,0.32117 -2.7897132,-0.0288 l 0.223245,-0.38667 c 0.7730825,0.34638 1.7416426,0.43839 2.646065,0.23106 z"
           style="opacity:0.219;fill:#000000;fill-rule:evenodd;stroke:none;stroke-width:0.26458341px;stroke-linecap:butt;stroke-linejoin:miter;stroke-opacity:1"
           inkscape:connector-curvature="0" />
      </g>
      <g
         id="g5007"
         transform="matrix(0.59382095,0,0,0.59382095,0.23472049,115.83968)">
        <path
           inkscape:connector-curvature="0"
           id="path4674-2"
           d="m 11.26933,295.35066 -3.0218097,-1.05625 c -0.2210848,0.96091 -0.6497565,1.8655 -0.9188547,2.8607 l 2.174149,1.25524 z"
           style="fill:#a05a2c;fill-rule:evenodd;stroke:none;stroke-width:0.36986288px;stroke-linecap:butt;stroke-linejoin:miter;stroke-opacity:1" />
        <path
           inkscape:connector-curvature="0"
           id="path4674-2-6"
           d="m 7.3281292,297.1548 c -0.3282777,1.21364 -0.4176093,2.56184 0.4081699,4.31525 l 1.7665155,-3.0597 z"
           style="fill:#ffd42a;fill-rule:evenodd;stroke:none;stroke-width:0.36986288px;stroke-linecap:butt;stroke-linejoin:miter;stroke-opacity:1" />
        <path
           id="path4674-2-8"
           d="m 11.269334,295.35066 2.425633,2.08885 c -0.72163,0.67191 -1.290685,1.49545 -2.018001,2.2261 l -2.174153,-1.25525 z"
           style="fill:#ffd42a;fill-rule:evenodd;stroke:none;stroke-width:0.36986288px;stroke-linecap:butt;stroke-linejoin:miter;stroke-opacity:1"
           inkscape:connector-curvature="0" />
        <path
           inkscape:connector-curvature="0"
           id="path4674-2-6-7"
           d="m 11.677494,299.66593 c -0.886902,0.89111 -2.0098137,1.64257 -3.9412024,1.80413 l 1.7665212,-3.0597 z"
           style="fill:#a05a2c;fill-rule:evenodd;stroke:none;stroke-width:0.36986288px;stroke-linecap:butt;stroke-linejoin:miter;stroke-opacity:1" />
        <path
           style="color:#000000;font-style:normal;font-variant:normal;font-weight:normal;font-stretch:normal;font-size:medium;line-height:normal;font-family:sans-serif;font-variant-ligatures:normal;font-variant-position:normal;font-variant-caps:normal;font-variant-numeric:normal;font-variant-alternates:normal;font-feature-settings:normal;text-indent:0;text-align:start;text-decoration:none;text-decoration-line:none;text-decoration-style:solid;text-decoration-color:#000000;letter-spacing:normal;word-spacing:normal;text-transform:none;writing-mode:lr-tb;direction:ltr;text-orientation:mixed;dominant-baseline:auto;baseline-shift:baseline;text-anchor:start;white-space:normal;shape-padding:0;clip-rule:nonzero;display:inline;overflow:visible;visibility:visible;opacity:1;isolation:auto;mix-blend-mode:normal;color-interpolation:sRGB;color-interpolation-filters:linearRGB;solid-color:#000000;solid-opacity:1;fill:#4d4d4d;fill-opacity:1;fill-rule:evenodd;stroke:none;stroke-width:1.10832536;stroke-linecap:butt;stroke-linejoin:miter;stroke-miterlimit:4;stroke-dasharray:none;stroke-dashoffset:0;stroke-opacity:1;color-rendering:auto;image-rendering:auto;shape-rendering:auto;text-rendering:auto;enable-background:accumulate"
           d="m -18.853516,-3.6210938 v 1.1269532 h 0.002 l 8.753906,1.66015622 c -0.84017,3.03505878 -1.101783,6.14967108 -2.044922,9.17773438 -0.970929,3.117297 -2.765613,6.142076 -6.710938,9.003906 v 1.439453 l 0.316407,-0.224609 c 4.431862,-3.078156 6.398791,-6.499254 7.455078,-9.890625 1.056299,-3.3913436 1.2416495,-6.7359554 2.175781,-9.7832031 l 0.1855469,-0.5917969 z"
           transform="matrix(0.28911132,0.1669185,-0.1669185,0.28911132,16.209767,299.38183)"
           id="path4674"
           inkscape:connector-curvature="0" />
        <path
           inkscape:connector-curvature="0"
           style="color:#000000;font-style:normal;font-variant:normal;font-weight:normal;font-stretch:normal;font-size:medium;line-height:normal;font-family:sans-serif;font-variant-ligatures:normal;font-variant-position:normal;font-variant-caps:normal;font-variant-numeric:normal;font-variant-alternates:normal;font-feature-settings:normal;text-indent:0;text-align:start;text-decoration:none;text-decoration-line:none;text-decoration-style:solid;text-decoration-color:#000000;letter-spacing:normal;word-spacing:normal;text-transform:none;writing-mode:lr-tb;direction:ltr;text-orientation:mixed;dominant-baseline:auto;baseline-shift:baseline;text-anchor:start;white-space:normal;shape-padding:0;clip-rule:nonzero;display:inline;overflow:visible;visibility:visible;opacity:1;isolation:auto;mix-blend-mode:normal;color-interpolation:sRGB;color-interpolation-filters:linearRGB;solid-color:#000000;solid-opacity:1;fill:#000000;fill-opacity:1;fill-rule:evenodd;stroke:none;stroke-width:0.37;stroke-linecap:butt;stroke-linejoin:miter;stroke-miterlimit:4;stroke-dasharray:none;stroke-dashoffset:0;stroke-opacity:1;color-rendering:auto;image-rendering:auto;shape-rendering:auto;text-rendering:auto;enable-background:accumulate"
           d="m 11.364574,295.18859 -0.188114,0.32582 -5.75e-4,-3.4e-4 -2.8079648,-0.98122 c -0.263705,1.01771 -0.707954,1.96185 -0.940722,2.99472 -0.239628,1.06331 -0.225654,2.23738 0.437291,3.72331 l -0.240269,0.41616 -0.05401,-0.11774 c -0.7675,-1.62969 -0.765118,-2.94708 -0.50442,-4.10388 0.26069,-1.15679 0.765384,-2.15469 1.003958,-3.19161 l 0.04513,-0.20207 z"
           id="path4674-3" />
      </g>
    </g>
  </g>
</svg>
