<?xml version="1.0" encoding="UTF-8" standalone="no"?>
<!-- Created with Inkscape (http://www.inkscape.org/) -->

<svg
   xmlns:dc="http://purl.org/dc/elements/1.1/"
   xmlns:cc="http://creativecommons.org/ns#"
   xmlns:rdf="http://www.w3.org/1999/02/22-rdf-syntax-ns#"
   xmlns:svg="http://www.w3.org/2000/svg"
   xmlns="http://www.w3.org/2000/svg"
   xmlns:xlink="http://www.w3.org/1999/xlink"
   xmlns:sodipodi="http://sodipodi.sourceforge.net/DTD/sodipodi-0.dtd"
   xmlns:inkscape="http://www.inkscape.org/namespaces/inkscape"
   width="10mm"
   height="10mm"
   viewBox="0 0 10 10"
   version="1.1"
   id="svg8"
   inkscape:version="0.92pre2 r"
   sodipodi:docname="epee_bois.svg">
  <defs
     id="defs2">
    <linearGradient
       inkscape:collect="always"
       id="linearGradient4740">
      <stop
         style="stop-color:#aaffee;stop-opacity:1"
         offset="0"
         id="stop4736" />
      <stop
         style="stop-color:#00aa88;stop-opacity:1"
         offset="1"
         id="stop4738" />
    </linearGradient>
    <radialGradient
       inkscape:collect="always"
       xlink:href="#linearGradient4740"
       id="radialGradient4742"
       cx="26.432226"
       cy="12.397455"
       fx="26.432226"
       fy="12.397455"
       r="10.458008"
       gradientTransform="matrix(-1.7359303,0.67038722,-0.44955645,-1.1640711,75.891047,11.11535)"
       gradientUnits="userSpaceOnUse" />
  </defs>
  <sodipodi:namedview
     id="base"
     pagecolor="#ffffff"
     bordercolor="#666666"
     borderopacity="1.0"
     inkscape:pageopacity="0.0"
     inkscape:pageshadow="2"
     inkscape:zoom="5.6568545"
     inkscape:cx="10.585031"
     inkscape:cy="23.160528"
     inkscape:document-units="mm"
     inkscape:current-layer="layer1"
     showgrid="false"
     inkscape:snap-bbox="true"
     inkscape:snap-bbox-midpoints="true"
     inkscape:bbox-nodes="true"
     inkscape:bbox-paths="true"
     inkscape:snap-bbox-edge-midpoints="true"
     inkscape:snap-global="true"
     inkscape:window-width="1877"
     inkscape:window-height="1018"
     inkscape:window-x="43"
     inkscape:window-y="25"
     inkscape:window-maximized="1"
     inkscape:pagecheckerboard="true" />
  <metadata
     id="metadata5">
    <rdf:RDF>
      <cc:Work
         rdf:about="">
        <dc:format>image/svg+xml</dc:format>
        <dc:type
           rdf:resource="http://purl.org/dc/dcmitype/StillImage" />
        <dc:title></dc:title>
      </cc:Work>
    </rdf:RDF>
  </metadata>
  <g
     inkscape:label="Calque 1"
     inkscape:groupmode="layer"
     id="layer1"
     transform="translate(0,-287)">
    <g
       id="g4603-0-4"
       transform="rotate(-30,3.1717911,287.60934)">
      <circle
         style="opacity:1;fill:#ffffff;fill-opacity:1;stroke:none;stroke-width:0.51201862;stroke-linecap:round;stroke-linejoin:miter;stroke-miterlimit:4;stroke-dasharray:none;stroke-opacity:1"
         id="path4482-9-7"
         cx="148.37973"
         cy="251.88176"
         transform="rotate(30)"
         r="5" />
      <g
         id="g4999-3-8"
         transform="matrix(0.60184709,0.60184709,-0.60184709,0.60184709,177.40467,125.969)">
        <path
           sodipodi:nodetypes="ccccccc"
           inkscape:connector-curvature="0"
           id="path4952-6-4"
           d="m -8.6487562,286.15586 -0.2988507,-0.1087 c -0.5119129,0.64963 -0.3790587,0.6786 -1.2711501,1.49063 l 0.3145214,0.79262 0.8436888,-0.12392 c 0.257193,-1.17859 0.3486991,-1.07802 0.6553474,-1.84617 z"
           style="fill:#999999;fill-rule:evenodd;stroke:none;stroke-width:0.26458338px;stroke-linecap:butt;stroke-linejoin:miter;stroke-opacity:1" />
        <path
           inkscape:connector-curvature="0"
           style="fill:#916f6f;fill-rule:evenodd;stroke:none;stroke-width:0.85114044px;stroke-linecap:butt;stroke-linejoin:miter;stroke-opacity:1"
           d="M 31.892578,5.7382812 28.619141,7.1738281 15.816406,18.228516 10.976562,26.652344 19.400391,21.814453 30.457031,9.0117188 Z"
           transform="matrix(0.30026527,-0.08045584,0.08045584,0.30026527,-14.246404,279.30834)"
           id="path4780-0-5" />
        <path
           inkscape:connector-curvature="0"
           id="path4952-8-6-0"
           d="m -8.6487562,286.15586 -0.2988506,-0.1087 c -0.5119128,0.64963 -0.3790587,0.6786 -1.2711502,1.49063 l 0.3145217,0.79262 z"
           style="opacity:0.25;fill:#000000;fill-rule:evenodd;stroke:none;stroke-width:0.26458341px;stroke-linecap:butt;stroke-linejoin:miter;stroke-opacity:1" />
        <path
           sodipodi:nodetypes="ccccc"
           inkscape:connector-curvature="0"
           id="path4780-7-2-3"
           d="m -4.2086091,278.46529 -0.8672503,0.69391 -2.9548366,4.35001 -0.775048,2.91856 z"
           style="opacity:0.15;fill:#000000;fill-rule:evenodd;stroke:none;stroke-width:0.26458338px;stroke-linecap:butt;stroke-linejoin:miter;stroke-opacity:1" />
        <path
           inkscape:connector-curvature="0"
           id="path4800-6-6"
           d="m -9.9302677,283.63174 -0.3012013,0.4049 c 0.169972,0.99184 0.7162356,1.88289 1.4197668,2.40158 0.8009643,0.34993 1.8457649,0.37749 2.7897097,0.0288 l 0.2000597,-0.46331 c -0.9079908,0.17134 -1.4756212,0.11262 -2.0373215,-0.0318 l -0.012866,-0.4645 -0.2788982,-0.21354 -0.3243736,-0.13476 -0.4087079,0.22111 c -0.4058814,-0.41426 -0.7405516,-0.87648 -1.0461673,-1.74849 z"
           style="fill:#b3b3b3;fill-rule:evenodd;stroke:none;stroke-width:0.26458338px;stroke-linecap:butt;stroke-linejoin:miter;stroke-opacity:1" />
        <path
           inkscape:connector-curvature="0"
           id="path4800-2-1-1"
           d="m -9.9302674,283.63173 -0.3012016,0.40491 c 0.169972,0.99184 0.7162363,1.88289 1.4197674,2.40158 l 0.6606831,-1.14434 -0.3243735,-0.13477 -0.4087077,0.22111 c -0.405882,-0.41426 -0.7405516,-0.87648 -1.0461677,-1.74849 z"
           style="opacity:0.2;fill:#000000;fill-rule:evenodd;stroke:none;stroke-width:0.26458341px;stroke-linecap:butt;stroke-linejoin:miter;stroke-opacity:1" />
        <path
           id="path4800-3-8-0"
           transform="matrix(0.22913589,0.13229167,-0.13229167,0.22913589,2.5323443,285.83446)"
           d="m -45.087891,17.482422 -0.08789,0.753906 c 2.43069,2.925251 5.902568,4.809484 9.185547,5.177734 v -1.6875 c -3.185,-0.32719 -6.529144,-1.856355 -9.097657,-4.24414 z"
           style="opacity:0.25;fill:#000000;fill-rule:evenodd;stroke:none;stroke-width:1.00000024px;stroke-linecap:butt;stroke-linejoin:miter;stroke-opacity:1"
           inkscape:connector-curvature="0" />
        <path
           id="path4800-3-9-7-6"
           d="m -5.942488,286.28269 -0.079597,0.18437 c -0.9439447,0.34872 -1.9887484,0.32117 -2.7897132,-0.0288 l 0.223245,-0.38667 c 0.7730825,0.34638 1.7416426,0.43839 2.646065,0.23106 z"
           style="opacity:0.219;fill:#000000;fill-rule:evenodd;stroke:none;stroke-width:0.26458341px;stroke-linecap:butt;stroke-linejoin:miter;stroke-opacity:1"
           inkscape:connector-curvature="0" />
      </g>
    </g>
  </g>
</svg>
